<?xml version="1.0" standalone="no"?>
<!DOCTYPE svg PUBLIC "-//W3C//DTD SVG 20010904//EN"
 "http://www.w3.org/TR/2001/REC-SVG-20010904/DTD/svg10.dtd">
<svg version="1.0" xmlns="http://www.w3.org/2000/svg"
 width="4140.000000pt" height="2874.000000pt" viewBox="0 0 4140.000000 2874.000000"
 preserveAspectRatio="xMidYMid meet">

<g transform="translate(0.000000,2874.000000) scale(0.100000,-0.100000)"
fill="#000000" stroke="none">
<path d="M26837 17359 c-20 -17 -49 -50 -63 -74 -44 -75 -175 -190 -268 -234
-45 -22 -90 -48 -100 -59 -10 -11 -33 -62 -51 -114 -54 -149 -103 -258 -141
-309 -47 -65 -141 -149 -243 -217 -46 -32 -102 -70 -125 -85 -52 -35 -304
-187 -311 -187 -2 0 -120 -56 -261 -125 -141 -69 -260 -125 -264 -125 -24 0
-330 -220 -375 -270 -41 -46 -144 -84 -335 -126 -63 -13 -134 -29 -157 -34
-24 -6 -62 -14 -85 -19 -195 -43 -243 -54 -313 -71 -129 -30 -162 -36 -382
-70 -38 -6 -93 -15 -123 -20 -30 -5 -89 -14 -130 -20 -114 -17 -213 -46 -340
-100 -63 -26 -153 -63 -200 -80 -47 -18 -116 -50 -153 -71 -38 -22 -71 -39
-73 -39 -2 0 -4 8 -4 18 0 11 -9 27 -19 36 -16 14 -18 27 -14 74 5 51 3 61
-20 88 -24 28 -24 31 -11 69 20 57 18 70 -16 108 -37 42 -38 73 -5 107 31 33
46 105 33 162 -6 24 -13 89 -17 145 -5 67 -13 110 -24 127 -9 14 -17 38 -17
53 0 15 -12 78 -25 138 -14 61 -34 162 -46 225 -22 130 -60 221 -134 325 -52
73 -98 115 -125 115 -10 0 -31 10 -47 23 -44 36 -74 52 -123 66 -25 7 -65 19
-90 28 -72 24 -214 28 -285 8 -33 -9 -85 -23 -115 -31 -119 -31 -197 -58 -231
-79 -60 -38 -125 -120 -172 -217 -70 -145 -85 -207 -103 -422 -8 -105 -20
-216 -26 -246 -13 -70 -13 -160 0 -328 9 -111 8 -140 -4 -174 -11 -33 -12 -53
-3 -102 6 -34 15 -69 20 -78 14 -28 11 -37 -21 -53 -26 -13 -30 -21 -30 -55 0
-29 5 -42 20 -50 28 -15 25 -32 -11 -52 -29 -17 -32 -17 -77 6 -74 38 -461
192 -522 209 -30 8 -89 20 -130 26 -80 13 -209 38 -275 52 -22 5 -65 14 -95
20 -153 30 -199 40 -260 58 -65 18 -154 40 -285 70 -533 122 -509 114 -725
259 -158 107 -277 169 -410 215 -184 63 -477 189 -577 247 -337 197 -426 258
-466 318 -13 20 -34 64 -46 97 -43 114 -176 322 -229 358 -49 32 -192 249
-192 291 0 26 -60 106 -79 106 -23 0 -46 -35 -34 -53 4 -6 8 -51 9 -100 1
-103 20 -147 95 -230 49 -53 69 -101 51 -119 -11 -11 -184 -5 -292 10 -36 5
-101 21 -145 36 -44 14 -88 26 -99 26 -19 0 -74 13 -135 32 -19 6 -68 12 -110
14 -42 2 -88 6 -103 10 -41 9 -37 -20 7 -60 32 -30 48 -55 25 -41 -5 3 -33 6
-62 7 -28 0 -59 5 -68 11 -21 13 -50 3 -50 -17 0 -38 80 -92 200 -135 36 -13
91 -37 122 -52 32 -16 62 -29 67 -29 19 0 178 -79 192 -96 13 -16 12 -17 -16
-10 -16 4 -57 14 -90 21 -110 25 -142 34 -212 60 -38 13 -98 29 -134 34 -35 5
-72 12 -81 16 -21 9 -36 -20 -22 -42 19 -30 123 -84 234 -122 36 -13 79 -29
95 -36 52 -23 118 -43 184 -54 60 -10 111 -39 111 -64 0 -5 -55 -6 -137 -3
-335 16 -343 16 -343 2 0 -14 74 -53 155 -82 28 -10 100 -21 165 -25 147 -10
150 -11 420 -89 41 -12 114 -25 162 -29 84 -7 90 -9 135 -49 27 -23 82 -60
123 -83 97 -55 321 -201 379 -247 62 -50 67 -54 141 -109 36 -26 74 -56 85
-65 123 -104 424 -281 660 -388 28 -12 100 -46 160 -74 61 -29 136 -63 167
-75 43 -17 68 -36 105 -80 59 -71 214 -205 353 -307 58 -43 138 -103 178 -133
155 -118 224 -160 497 -301 163 -85 237 -130 282 -173 38 -36 71 -113 113
-262 45 -159 77 -247 126 -354 40 -86 45 -105 54 -210 13 -143 32 -254 63
-356 33 -110 53 -219 78 -410 5 -38 14 -95 19 -125 6 -30 13 -70 17 -87 6 -39
-13 -90 -70 -187 -52 -89 -111 -218 -137 -303 -15 -50 -20 -93 -20 -190 0
-104 -3 -131 -20 -165 -11 -23 -20 -53 -20 -66 0 -13 -9 -35 -20 -49 -12 -16
-20 -41 -20 -65 0 -21 -20 -100 -45 -175 -39 -115 -46 -150 -49 -227 -2 -61
-9 -111 -24 -151 -51 -144 -66 -359 -58 -799 5 -326 9 -387 34 -521 28 -149
100 -386 177 -580 78 -197 123 -319 145 -390 12 -38 46 -146 75 -240 30 -93
59 -190 65 -215 6 -25 16 -61 20 -80 5 -19 14 -69 20 -110 25 -176 34 -219 57
-295 16 -53 34 -90 54 -111 27 -28 32 -42 44 -140 8 -60 20 -145 26 -189 12
-83 8 -242 -9 -426 -14 -141 -25 -213 -63 -399 -19 -93 -21 -126 -16 -290 10
-318 49 -542 158 -910 17 -58 35 -121 39 -140 5 -19 18 -69 30 -110 12 -41 26
-88 30 -105 5 -16 15 -55 24 -85 8 -30 30 -113 50 -185 19 -71 49 -174 66
-229 17 -54 40 -148 51 -210 10 -61 21 -117 24 -125 3 -8 10 -45 15 -84 14
-95 95 -251 161 -311 70 -63 111 -73 207 -53 43 10 94 17 114 17 27 0 47 8 72
31 35 30 56 32 56 3 0 -41 125 -72 152 -38 99 126 155 136 212 40 32 -55 70
-86 106 -86 28 0 153 83 166 110 4 8 10 76 14 150 5 95 12 144 23 167 9 17 28
80 42 140 14 59 44 166 65 237 22 70 40 136 40 145 0 9 10 43 21 76 19 55 36
119 104 380 13 50 30 111 38 135 18 57 31 109 57 240 12 58 33 152 47 210 13
58 29 128 34 155 4 28 21 124 38 215 16 91 32 201 36 245 8 93 -7 299 -36 505
-14 99 -21 203 -21 330 -2 179 1 201 37 365 8 33 17 92 20 130 13 132 24 155
80 155 12 0 27 6 33 13 5 6 12 80 15 162 4 123 11 171 36 265 68 260 125 423
301 850 92 225 163 422 210 585 36 128 47 172 70 290 13 64 9 285 -8 545 -6
80 -13 197 -16 260 -4 63 -11 138 -16 165 -5 28 -14 79 -21 115 -6 36 -22 102
-36 148 -13 46 -26 107 -28 135 -4 57 -20 111 -59 202 -14 33 -26 70 -26 83 0
19 -33 91 -77 166 -18 29 -16 51 7 96 26 52 25 76 -5 112 -18 21 -25 41 -25
72 0 23 -7 67 -16 97 -15 54 -80 215 -94 234 -4 6 -31 55 -60 110 -73 136 -75
149 -40 298 9 39 18 99 40 277 5 41 12 89 15 105 3 17 10 53 15 80 5 28 14 73
19 100 6 28 16 128 22 224 11 168 13 177 49 255 45 99 76 188 131 371 80 268
75 264 478 466 270 136 308 159 574 356 58 43 150 110 204 150 54 39 141 110
193 156 75 66 121 96 220 146 69 35 130 66 135 71 6 4 53 30 105 57 117 61
343 195 470 279 97 64 212 157 452 364 73 64 169 145 213 180 44 35 113 92
152 127 112 96 167 127 252 142 74 13 99 22 199 67 29 13 58 24 64 24 7 0 71
29 143 64 71 35 168 80 215 98 89 36 246 132 255 157 8 21 -2 26 -30 13 -14
-7 -43 -12 -63 -12 -36 0 -72 -11 -142 -42 -19 -8 -37 -14 -39 -12 -14 13 74
64 179 104 117 45 287 159 297 198 8 33 -14 44 -48 26 -16 -8 -41 -14 -57 -14
-16 0 -70 -20 -120 -45 -95 -47 -141 -59 -111 -29 17 16 66 48 202 130 104 62
156 131 111 148 -9 3 -25 -1 -37 -9 -12 -8 -33 -15 -48 -15 -14 0 -40 -5 -57
-11 -57 -20 -56 -4 2 31 47 29 56 39 56 63 0 28 -2 29 -32 23 -18 -4 -67 -11
-108 -15 -95 -11 -270 -69 -380 -128 -131 -69 -400 -137 -400 -101 0 7 38 48
84 90 93 86 126 141 126 213 0 26 8 57 19 76 15 24 17 37 10 51 -13 24 -18 23
-62 -13z m563 -338 c0 -4 -35 -24 -77 -44 -43 -20 -126 -63 -185 -96 -60 -32
-110 -56 -113 -52 -5 9 115 84 221 140 48 26 104 48 152 60 1 1 2 -3 2 -8z
m-5149 -1598 c-9 -16 -10 -15 -11 8 0 14 3 29 8 33 12 12 14 -22 3 -41z m-123
-428 c1 -1 0 -10 -4 -19 -8 -20 -60 -21 -80 -1 -23 23 -8 34 39 28 23 -3 43
-7 45 -8z m-88 -47 c38 2 60 -9 60 -29 0 -16 -4 -19 -17 -14 -10 3 -31 9 -48
12 -29 6 -45 19 -45 37 0 4 8 5 18 1 9 -4 24 -7 32 -7z m-497 -8225 c3 -10 11
-43 17 -73 7 -30 19 -67 28 -81 12 -21 13 -33 4 -57 -7 -22 -7 -49 1 -97 10
-59 9 -72 -8 -113 -18 -43 -20 -78 -23 -422 -3 -373 3 -536 35 -840 12 -121
20 -161 36 -181 19 -26 19 -28 1 -95 -16 -61 -18 -115 -19 -474 0 -371 -2
-410 -19 -463 -19 -59 -49 -87 -94 -87 -37 0 -92 90 -128 209 -13 42 -21 474
-16 861 2 126 28 465 51 676 28 249 31 301 36 619 5 322 9 392 32 515 17 95
27 120 48 120 7 0 16 -8 18 -17z m-103 -3102 c5 -11 6 -22 2 -25 -5 -3 -7 -19
-4 -36 3 -22 0 -30 -11 -30 -16 0 -32 26 -28 48 1 6 -2 12 -7 12 -16 0 -24 33
-10 42 22 14 47 9 58 -11z m60 -231 c0 -11 -4 -20 -10 -20 -5 0 -10 9 -10 20
0 11 5 20 10 20 6 0 10 -9 10 -20z"/>
</g>
</svg>
